# xmcd
#
# Track frame offsets:
#	150
#	15810
#	31407
#	47572
#	66552
#	78347
#	96255
#	118200
#	131672
#	147102
#	166392
#	182055
#	197652
#	213817
#	232797
#	244590
#	262497
#	284445
#	297917
#	313347
#
# Disc length: 4435 seconds
#
# Revision: 2
# Processed by: cddbd v1.5.2PL0 Copyright (c) Steve Scherf et al.
# Submitted via: audiograbber 1.83.01
#
DISCID=28115114
DTITLE=THMC0512 - Top Hit Monthly Country (THM)
DYEAR=2005
DGENRE=Karaoke
TTITLE0=Mcbride, Martina - I Never Promised You A Rose Garden - Vocal
TTITLE1=Jackson, Alan - Usa Today - Vocal
TTITLE2=Big and Rich - Comin' To Your City - Vocal
TTITLE3=Currington, Billy - Must Be Doin' Somethin' Right - Vocal
TTITLE4=Shelton, Blake - Nobody But Me - Vocal
TTITLE5=Mcentire, Reba - You're Gonna Be (Always Loved By Me) - Vocal
TTITLE6=Sugarland - Stand Back Up - Vocal
TTITLE7=Keith, Toby - Big Blue Note - Vocal
TTITLE8=Van Zandt - Nobody Gonna Tell Me What To Do - Vocal
TTITLE9=Twain, Shania - Shoes - Vocal
TTITLE10=Martina Mcbride - I Never Promised You A Rose Garden (THM)
TTITLE11=Alan Jackson - Usa Today (THM)
TTITLE12=Big and Rich - Comin' To Your City (THM)
TTITLE13=Billy Currington - Must Be Doin' Somethin' Right (THM)
TTITLE14=Blake Shelton - Nobody But Me (THM)
TTITLE15=Reba Mcentire - You're Gonna Be (Always Loved By Me) (THM)
TTITLE16=Sugarland - Stand Back Up (THM)
TTITLE17=Toby Keith - Big Blue Note (THM)
TTITLE18=Van Zandt - Nobody Gonna Tell Me What To Do (THM)
TTITLE19=Shania Twain - Shoes (THM)
EXTD=
EXTT0=
EXTT1=
EXTT2=
EXTT3=
EXTT4=
EXTT5=
EXTT6=
EXTT7=
EXTT8=
EXTT9=
EXTT10=
EXTT11=
EXTT12=
EXTT13=
EXTT14=
EXTT15=
EXTT16=
EXTT17=
EXTT18=
EXTT19=
PLAYORDER=
